<svg width="277" height="70" viewBox="0 0 277 70" fill="none" xmlns="http://www.w3.org/2000/svg">
<path d="M29.5017 30.1094C27.5238 31.9877 24.5426 31.8111 22.6658 29.8262C20.8847 27.9526 20.8653 24.962 22.8432 23.0883C24.7277 21.308 27.8023 21.3865 29.5873 23.2664C31.4664 25.2451 31.3793 28.3243 29.5017 30.1094ZM46.5725 48.1041C44.5969 49.9778 41.611 49.8004 39.8213 47.9229C37.9515 45.9426 38.0309 43.0633 40.0072 41.1803C41.8848 39.3992 44.8707 39.3821 46.7444 41.3576C48.5301 43.2398 48.4508 46.3183 46.5725 48.1041Z" fill="#5A189A"/>
<path d="M39.1299 39.5003C36.7779 41.7333 33.2203 41.5163 31.1071 39.2879C28.8702 36.9367 28.8608 33.383 31.2089 31.1547C33.442 29.0329 37.1092 29.1301 39.3336 31.4829C41.4562 33.7198 41.3582 37.3793 39.1299 39.5003Z" fill="#5A189A"/>
<path d="M21.4766 38.2823C19.9972 39.6831 17.5877 39.5322 16.1807 38.0482C14.7737 36.5595 14.8382 34.251 16.3246 32.8464C17.8062 31.4378 20.2119 31.4028 21.6181 32.8868C23.0275 34.37 22.9629 36.8737 21.4766 38.2823Z" fill="#5A189A"/>
<path d="M36.3835 53.9997C34.9042 55.409 32.5918 55.346 31.1872 53.8667C29.7763 52.3834 29.7452 49.9684 31.2315 48.5645C32.7108 47.1521 35.2184 47.2268 36.6231 48.7069C38.0309 50.1901 37.8675 52.5958 36.3835 53.9997Z" fill="#5A189A"/>
<path d="M17.8933 7.85394C17.24 7.16715 17.2688 6.01059 18.059 5.2577C18.7504 4.60203 19.9062 4.62848 20.5666 5.31993C21.3179 6.11715 21.2891 7.26438 20.5915 7.92471C19.8043 8.6776 18.6486 8.64649 17.8933 7.85394Z" fill="#5A189A"/>
<path d="M5.11908 19.8279C4.46341 19.1364 4.49686 17.9892 5.18753 17.3289C5.98242 16.5752 7.13198 16.6071 7.79231 17.2939C8.54054 18.0872 8.51176 19.243 7.7192 19.9959C7.0262 20.6515 5.87042 20.6259 5.11908 19.8279Z" fill="#5A189A"/>
<path d="M0.749501 13.7806C0.21361 13.2183 0.240054 12.2795 0.800057 11.7436C1.44717 11.1276 2.38829 11.1494 2.92262 11.7211C3.53629 12.3635 3.50907 13.2984 2.86273 13.9097C2.30195 14.4456 1.36084 14.4277 0.749501 13.7806Z" fill="#5A189A"/>
<path d="M12.3244 2.49347C11.7862 1.92647 11.8127 0.991576 12.3773 0.451018C13.0198 -0.160318 13.9609 -0.133095 14.4968 0.42924C15.1081 1.07635 15.0817 2.01514 14.4369 2.62647C13.8753 3.16236 12.9342 3.14058 12.3244 2.49347Z" fill="#5A189A"/>
<path d="M3.61097 4.82759C2.95296 4.13225 2.98641 2.97569 3.67319 2.31614C4.36464 1.66513 5.52508 1.69625 6.18698 2.39158C6.92898 3.17558 6.89865 4.33603 6.2072 4.9917C5.51575 5.64737 4.35997 5.61237 3.61097 4.82759Z" fill="#5A189A"/>
<path d="M23.827 14.7373C22.7 13.5543 22.8502 11.7296 23.9406 10.6975C25.1252 9.57283 26.8557 9.61639 27.9804 10.8002C29.0125 11.8937 28.9658 13.6258 27.7859 14.7466C26.6932 15.7873 24.8615 15.8316 23.827 14.7373Z" fill="#5A189A"/>
<path d="M10.282 27.5847C9.15887 26.4017 9.20554 24.6649 10.3885 23.5441C11.4782 22.5174 13.3076 22.4638 14.433 23.6507C15.4628 24.7411 15.3236 26.5705 14.2339 27.5979C13.047 28.7226 11.3149 28.6782 10.282 27.5847Z" fill="#5A189A"/>
<path d="M8.81585 12.2966C7.78374 11.2077 7.92996 9.37761 9.01263 8.34549C10.2003 7.22082 11.934 7.26904 12.9645 8.35949C14.0947 9.5425 14.0503 11.2785 12.8603 12.4032C11.773 13.4353 9.94363 13.4843 8.81585 12.2966Z" fill="#5A189A"/>
<path d="M15.6253 20.6648C14.2253 19.1854 14.3824 16.7836 15.8626 15.3704C17.3536 13.9618 19.6659 14.028 21.0675 15.5127C22.476 16.9921 22.511 19.4024 21.0231 20.811C19.5383 22.2195 17.0362 22.1495 15.6253 20.6648Z" fill="#5A189A"/>
<path d="M61.8908 52.5732C62.5683 53.2468 63.7241 53.2374 64.4863 52.4628C65.1599 51.7846 65.1505 50.6288 64.4731 49.9591C63.693 49.193 62.5457 49.1976 61.8722 49.879C61.1107 50.6505 61.1107 51.8024 61.8908 52.5732Z" fill="#5A189A"/>
<path d="M49.6463 65.0963C50.3291 65.7652 51.4803 65.7605 52.1546 65.083C52.9246 64.3029 52.916 63.1518 52.2425 62.4775C51.4631 61.716 50.3027 61.7246 49.5397 62.4954C48.8669 63.1744 48.8762 64.3302 49.6463 65.0963Z" fill="#5A189A"/>
<path d="M55.6048 69.5934C56.1586 70.1378 57.0974 70.1332 57.6473 69.5841C58.2765 68.9548 58.2672 68.0122 57.7134 67.4662C57.0803 66.8416 56.1415 66.8416 55.5115 67.4755C54.9709 68.0293 54.9709 68.9688 55.6048 69.5934Z" fill="#5A189A"/>
<path d="M67.1308 58.2611C67.6845 58.8017 68.6288 58.8017 69.1732 58.244C69.8024 57.614 69.7939 56.6714 69.244 56.1261C68.6109 55.4969 67.6674 55.5055 67.0429 56.1432C66.4976 56.6931 66.4976 57.6366 67.1308 58.2611Z" fill="#5A189A"/>
<path d="M64.6107 66.9217C65.2975 67.5859 66.4533 67.5821 67.1261 66.9046C67.795 66.2311 67.7903 65.0659 67.109 64.397C66.3382 63.6348 65.1777 63.6387 64.5042 64.3169C63.8353 64.9944 63.8493 66.1556 64.6107 66.9217Z" fill="#5A189A"/>
<path d="M55.1311 46.4995C56.2869 47.6514 58.117 47.541 59.1709 46.4778C60.3221 45.3173 60.3135 43.5852 59.1531 42.438C58.0813 41.3794 56.3499 41.388 55.2019 42.5492C54.1473 43.6163 54.0586 45.4503 55.1311 46.4995Z" fill="#5A189A"/>
<path d="M42.0007 59.7763C43.1611 60.9274 44.8932 60.9149 46.0498 59.7537C47.0998 58.6819 47.1838 56.8611 46.0233 55.71C44.9508 54.6561 43.1253 54.7533 42.0714 55.8243C40.9289 56.9895 40.9374 58.7224 42.0007 59.7763Z" fill="#5A189A"/>
<path d="M57.2615 61.5574C58.3247 62.6159 60.1587 62.5055 61.2087 61.443C62.3645 60.2733 62.3513 58.545 61.2842 57.4911C60.1237 56.3439 58.3862 56.3478 57.2397 57.5129C56.1804 58.5754 56.0964 60.414 57.2615 61.5574Z" fill="#5A189A"/>
<path d="M49.0264 54.5713C50.4793 56.011 52.8896 55.8998 54.3332 54.4469C55.7689 52.994 55.7503 50.6817 54.2974 49.2428C52.8445 47.8023 50.4349 47.7183 48.9991 49.1759C47.5556 50.6334 47.5735 53.1356 49.0264 54.5713Z" fill="#5A189A"/>
<path d="M37.712 22.6535C39.1742 21.2224 39.112 18.809 37.6856 17.3514C36.2505 15.8892 33.9429 15.8635 32.4806 17.2946C31.0169 18.7211 30.8924 21.126 32.3212 22.5882C33.7523 24.0497 36.2591 24.08 37.712 22.6535Z" fill="#5A189A"/>
<path d="M52.8538 38.1501C54.3161 36.7236 54.3464 34.4074 52.9246 32.9483C51.4896 31.4821 49.08 31.3624 47.6178 32.7888C46.1564 34.2153 46.1299 36.7236 47.5564 38.1851C48.982 39.6473 51.3916 39.5812 52.8538 38.1501Z" fill="#5A189A"/>
<path d="M39.8921 29.498C38.0184 27.5178 38.1903 24.5327 40.1752 22.6629C42.0536 20.8825 45.0395 20.8647 46.9178 22.841C48.6896 24.7186 48.6103 27.8025 46.7319 29.5781C44.7564 31.4557 41.6818 31.3717 39.8921 29.498ZM21.8982 46.5617C20.026 44.5862 20.2034 41.6003 22.0817 39.8238C24.0573 37.9463 26.9475 38.0209 28.8196 39.9973C30.6023 41.8756 30.6202 44.8654 28.6446 46.7391C26.7616 48.5249 23.6824 48.4448 21.8982 46.5617Z" fill="#5A189A"/>
<path d="M62.1475 17.8873C62.839 17.2316 63.9994 17.2666 64.7438 18.0506C65.3994 18.7468 65.3637 19.8986 64.6815 20.5543C63.8882 21.3127 62.7324 21.2808 62.0768 20.5854C61.3231 19.796 61.3589 18.6402 62.1475 17.8873Z" fill="#5A189A"/>
<path d="M50.1697 5.12004C50.8604 4.46437 52.0216 4.49081 52.6773 5.18226C53.4302 5.97559 53.3952 7.12204 52.7037 7.78782C51.9151 8.54072 50.7546 8.50494 50.0056 7.71627C49.3499 7.01549 49.381 5.86904 50.1697 5.12004Z" fill="#5A189A"/>
<path d="M56.2208 0.743463C56.7832 0.207572 57.7266 0.234017 58.2625 0.796353C58.8739 1.44347 58.8521 2.37836 58.2804 2.91425C57.6426 3.53025 56.7031 3.49914 56.0879 2.85669C55.552 2.28969 55.5784 1.3548 56.2208 0.743463Z" fill="#5A189A"/>
<path d="M67.508 12.3145C68.075 11.7825 69.0146 11.8058 69.5504 12.3674C70.1571 13.0145 70.1353 13.958 69.5722 14.49C68.9251 15.1005 67.9863 15.0749 67.375 14.4324C66.843 13.8693 66.8617 12.9258 67.508 12.3145Z" fill="#5A189A"/>
<path d="M65.1778 3.6057C65.8692 2.94536 67.025 2.97647 67.6814 3.66792C68.3418 4.35937 68.306 5.51982 67.6146 6.17548C66.8259 6.91982 65.6654 6.89338 65.0098 6.20193C64.358 5.51437 64.3891 4.35392 65.1778 3.6057Z" fill="#5A189A"/>
<path d="M55.2634 23.8187C56.4417 22.6987 58.2757 22.8441 59.3078 23.9338C60.4279 25.1168 60.3843 26.8442 59.1966 27.9736C58.1108 29.0057 56.3787 28.9575 55.2494 27.7737C54.218 26.6895 54.1737 24.8508 55.2634 23.8187Z" fill="#5A189A"/>
<path d="M42.4168 10.2767C43.5998 9.15672 45.3319 9.19561 46.4612 10.3833C47.4934 11.4729 47.5377 13.2984 46.35 14.4277C45.2611 15.4599 43.4357 15.3183 42.4036 14.2286C41.2828 13.041 41.3271 11.3088 42.4168 10.2767Z" fill="#5A189A"/>
<path d="M57.6994 8.80983C58.7937 7.77382 60.6239 7.92394 61.6606 9.00972C62.7853 10.1927 62.7324 11.9287 61.6466 12.9616C60.4551 14.0863 58.723 14.0466 57.6022 12.8551C56.5701 11.7693 56.5218 9.93528 57.6994 8.80983Z" fill="#5A189A"/>
<path d="M49.3313 15.6232C50.8153 14.224 53.221 14.3787 54.6295 15.8589C56.0342 17.3475 55.9673 19.6552 54.4872 21.0599C53.0032 22.4692 50.5975 22.5034 49.1889 21.0194C47.7858 19.5346 47.8519 17.0325 49.3313 15.6232Z" fill="#5A189A"/>
<path d="M17.4259 61.8809C16.7523 62.563 16.7632 63.7188 17.5348 64.481C18.2169 65.1546 19.3735 65.1499 20.0447 64.4678C20.8131 63.6924 20.8046 62.5366 20.1264 61.8669C19.3509 61.1047 18.199 61.1047 17.4259 61.8809Z" fill="#5A189A"/>
<path d="M4.90209 49.6449C4.23786 50.3231 4.23786 51.4789 4.9192 52.1486C5.69698 52.9186 6.84809 52.91 7.52399 52.2318C8.2901 51.4571 8.27688 50.3005 7.50843 49.5298C6.82709 48.8562 5.67131 48.8702 4.90209 49.6449Z" fill="#5A189A"/>
<path d="M0.405725 55.5988C-0.138722 56.1572 -0.134833 57.0913 0.415058 57.6405C1.05051 58.2705 1.99395 58.2611 2.53684 57.7073C3.1684 57.0781 3.15907 56.1355 2.52362 55.5101C1.97217 54.9657 1.03028 54.9703 0.405725 55.5988Z" fill="#5A189A"/>
<path d="M11.7442 67.1302C11.199 67.6839 11.2013 68.6188 11.7551 69.1679C12.3867 69.7925 13.3278 69.7886 13.8746 69.2387C14.4968 68.601 14.4968 67.6622 13.859 67.0423C13.3083 66.4916 12.3688 66.4916 11.7442 67.1302Z" fill="#5A189A"/>
<path d="M3.08207 64.6133C2.41551 65.2915 2.41551 66.4473 3.09762 67.1247C3.77274 67.7889 4.93319 67.7851 5.60674 67.1029C6.36197 66.3322 6.35964 65.1717 5.68685 64.4982C5.0063 63.8339 3.84818 63.8433 3.08207 64.6133Z" fill="#5A189A"/>
<path d="M23.5012 55.1205C22.3516 56.2809 22.4582 58.111 23.5237 59.1649C24.6904 60.316 26.4209 60.3075 27.5682 59.147C28.6267 58.0752 28.6158 56.3439 27.4531 55.1959C26.3891 54.1366 24.5535 54.0526 23.5012 55.1205Z" fill="#5A189A"/>
<path d="M10.2252 41.9946C9.07565 43.1597 9.08887 44.8919 10.247 46.0391C11.3188 47.093 13.1442 47.1778 14.2914 46.0173C15.3453 44.9494 15.2481 43.1193 14.1802 42.0654C13.0182 40.9182 11.2791 40.9267 10.2252 41.9946Z" fill="#5A189A"/>
<path d="M8.44643 57.2508C7.38554 58.3187 7.49598 60.1519 8.55999 61.2066C9.72277 62.3546 11.4549 62.3453 12.5119 61.2828C13.6653 60.1084 13.6568 58.3809 12.4917 57.229C11.4253 56.179 9.59132 56.0903 8.44643 57.2508Z" fill="#5A189A"/>
<path d="M15.4255 49.0203C13.9905 50.4779 14.1009 52.8882 15.5538 54.3225C17.009 55.766 19.3237 55.7442 20.7548 54.2913C22.1945 52.8384 22.2808 50.4289 20.8279 48.9931C19.3704 47.5542 16.8651 47.5721 15.4255 49.0203Z" fill="#5A189A"/>
<path d="M120.014 31.0563C120.014 38.0986 113.535 39.2253 113.535 39.2253L121.141 51.338V54.4366H113.817L106.211 39.7887H98.3239V54.4366H91V15H110.718C116.352 15 120.014 18.662 120.014 23.7324V31.0563ZM98.3239 21.1972V33.5915H108.746C111 33.5915 112.69 31.9014 112.69 29.9296V24.8592C112.69 22.8873 111 21.1972 108.746 21.1972H98.3239ZM150.542 15H157.866V46.2676C157.866 51.338 154.204 55 148.57 55H137.303C131.669 55 128.007 51.338 128.007 46.2676V15H135.331V45.1408C135.331 47.1127 137.021 48.8028 139.275 48.8028H146.599C148.852 48.8028 150.542 47.1127 150.542 45.1408V15ZM189.239 42.0423H189.803L188.958 31.9014V15H196.282V54.4366H188.676L174.028 27.3944H173.465L174.31 37.5352V54.4366H166.986V15H174.592L189.239 42.0423ZM234.415 31.0563C234.415 38.0986 227.937 39.2253 227.937 39.2253L235.542 51.338V54.4366H228.218L220.613 39.7887H212.725V54.4366H205.401V15H225.12C230.754 15 234.415 18.662 234.415 23.7324V31.0563ZM212.725 21.1972V33.5915H223.148C225.401 33.5915 227.092 31.9014 227.092 29.9296V24.8592C227.092 22.8873 225.401 21.1972 223.148 21.1972H212.725ZM268.887 45.9859C268.887 50.493 264.944 54.4366 259.31 54.4366H240.437V48.2394H257.056C259.873 48.2394 261.563 46.5493 261.563 44.2958V42.3239C261.563 40.0704 260.718 38.9437 259.31 38.662L247.761 36.1268C243.817 35.2817 240.718 32.1831 240.718 27.3944V23.4507C240.718 18.9437 244.662 15 250.296 15H267.761V19.2254L265.789 21.1972H252.549C249.732 21.1972 248.042 22.8873 248.042 25.1408V26.5493C248.042 28.8028 248.887 29.6479 250.296 29.9296L261.845 32.4648C265.789 33.3099 268.887 36.4084 268.887 41.4789V45.9859Z" fill="#5A189A"/>
</svg>
